# xmcd CD database file
#
# Track frame offsets:
#	150
#	17663
#	42272
#	58559
#	96795
#	108540
#	135610
#	164554
#	180327
#	205882
#
# Disc length: 3049 seconds
#
# Revision: 0
# Processed by: cddbd v1.5.1PL2 Copyright (c) Steve Scherf et al.
# Submitted via: CDex 1.51
#
DISCID=820be70a
DTITLE=Kyuss - 1995-02-03-Spaceship Landing-London, England [CD1]
DYEAR=1995
DGENRE=Blues
TTITLE0=Hurricane
TTITLE1=Thumb
TTITLE2=Green machine
TTITLE3=Whitewater
TTITLE4=100 degrees
TTITLE5=Un sandpiper 
TTITLE6=Freedom run
TTITLE7=Tangy zizzle
TTITLE8=Conan troutman
TTITLE9=N.O.
EXTD=YEAR: 1995
EXTT0=
EXTT1=
EXTT2=
EXTT3=
EXTT4=
EXTT5=
EXTT6=
EXTT7=
EXTT8=
EXTT9=
PLAYORDER=
